<?xml version="1.0" encoding="UTF-8"?><svg xmlns="http://www.w3.org/2000/svg" viewBox="0 0 57.11 47.82"><defs><style>.d{fill:#ffe6db;stroke:#4a3a85;stroke-linecap:round;stroke-linejoin:round;stroke-width:3px;}</style></defs><g id="a"/><g id="b"><g id="c"><path class="d" d="M46.61,1.5H10.5C5.53,1.5,1.5,5.53,1.5,10.5V28.57c0,4.97,4.03,9,9,9h8.57l8.84,8.48c.37,.36,.96,.36,1.33,0l8.84-8.48h8.54c4.97,0,9-4.03,9-9V10.5c0-4.97-4.03-9-9-9Zm-13,19.2l-9.58,5.11c-.92,.49-2.04-.18-2.04-1.22V14.36c0-1.05,1.12-1.72,2.04-1.22l9.58,5.11c.98,.52,.98,1.92,0,2.45Z"/></g></g></svg>