<?xml version="1.0" encoding="UTF-8"?><svg xmlns="http://www.w3.org/2000/svg" viewBox="0 0 175.47 98.86"><defs><style>.d{fill:none;}.d,.e,.f,.g{stroke:#493884;stroke-linecap:round;stroke-linejoin:round;}.d,.f,.g{stroke-width:3px;}.e{fill:#ffe6db;stroke-width:2px;}.f{fill:#eee;}.g{fill:#f2fffe;}</style></defs><g id="a"/><g id="b"><g id="c"><g><polygon class="f" points="173.97 40.91 50.74 97.36 1.5 55.85 13.56 50.6 13.56 57.43 50.74 88.41 50.74 69.82 106.5 63.63 69.55 32.82 69.33 32.65 49.88 34.81 126.47 1.5 173.97 40.91"/><path class="g" d="M159.41,40.46l-51.96,22.75c-.58,.25-1.25,.16-1.73-.25l-34.09-28.42c-.95-.79-.73-2.31,.4-2.8L123.93,9.27c.57-.25,1.24-.15,1.72,.24l34.15,28.15c.96,.79,.74,2.31-.39,2.8Z"/><path class="e" d="M135.98,29.89l-8.41-8.28c-2.31-2.28-6.93-2.83-10.31-1.23l-24.57,11.61c-3.38,1.6-4.25,4.74-1.94,7.01l8.41,8.28c2.31,2.28,6.93,2.83,10.31,1.23l5.83-2.75,9.92,1.04c.46,.05,.88-.23,1.02-.67l1.99-6.47,5.81-2.74c3.38-1.6,4.25-4.74,1.94-7.01Zm-24.66,9.91l-7.21-7.1,3.91-1.85,7.21,7.1-3.91,1.85Zm7.06-3.33l-7.21-7.1,3.91-1.85,7.21,7.1-3.91,1.85Z"/><polygon class="d" points="106.5 63.63 50.74 88.41 50.74 69.82 106.5 63.63"/><polygon class="g" points="50.74 69.82 50.74 88.41 13.56 57.43 13.56 38.84 22.83 46.57 28.12 50.96 50.74 69.82"/><polygon class="g" points="106.5 63.63 50.74 88.41 50.74 69.82 106.5 63.63"/><path class="g" d="M105.8,63.71l-54.93,6.1c-.08,0-.16-.02-.23-.07l-22.52-18.78-5.29-4.39-8.72-7.27c-.21-.17-.1-.51,.16-.53l35.62-3.96,19.44-2.16,.22,.18,36.41,30.35c.21,.17,.11,.51-.16,.53Z"/></g></g></g></svg>