<?xml version="1.0" encoding="UTF-8"?><svg xmlns="http://www.w3.org/2000/svg" viewBox="0 0 129 121"><defs><style>.d{fill:none;}.d,.e,.f,.g{stroke:#4a3a85;stroke-linecap:round;stroke-linejoin:round;stroke-width:3px;}.h{fill:#4a3a85;}.e{fill:#ffe6db;}.f{fill:#eee;}.g{fill:#f2fffe;}</style></defs><g id="a"/><g id="b"><g id="c"><g><rect class="f" x="1.5" y="28.06" width="126" height="91.44" rx="2.42" ry="2.42"/><rect class="g" x="12.27" y="39.11" width="86.95" height="70.64" rx="11.99" ry="11.99"/><circle class="h" cx="112.89" cy="55.67" r="4.23"/><circle class="h" cx="112.89" cy="73.78" r="4.23"/><circle class="h" cx="112.89" cy="91.89" r="4.23"/><line class="d" x1="64.5" y1="28.06" x2="81.87" y2="10.38"/><line class="d" x1="64.54" y1="28.1" x2="37.9" y2="1.5"/><path class="e" d="M69.86,55.35h-28.23c-4.97,0-9,4.03-9,9v12.82c0,4.97,4.03,9,9,9h6.01l7.45,7.15c.37,.36,.96,.36,1.33,0l7.45-7.15h5.99c4.97,0,9-4.03,9-9v-12.82c0-4.97-4.03-9-9-9Zm-10.13,16.58l-7.55,4.03c-.92,.49-2.04-.18-2.04-1.22v-8.07c0-1.05,1.12-1.72,2.04-1.22l7.55,4.03c.98,.52,.98,1.92,0,2.45Z"/></g></g></g></svg>