<?xml version="1.0" encoding="UTF-8"?><svg xmlns="http://www.w3.org/2000/svg" viewBox="0 0 333.29 223.5"><defs><style>.d{fill:#fff;}.d,.e,.f,.g,.h,.i{stroke:#4a3a85;stroke-linecap:round;stroke-linejoin:round;stroke-width:3px;}.e{fill:#ffe6db;}.f{fill:#d9ab98;}.g{fill:#eee;}.h{fill:#e7ffc9;}.i{fill:#f2fffe;}</style></defs><g id="a"/><g id="b"><g id="c"><g><path class="h" d="M228.86,139.23c5.32-18.45,18.6-34.46,35.74-43.09,4.17-2.1,9.08-3.79,13.42-2.08,3.87,1.53,6.34,5.52,7.1,9.61s.06,8.3-.81,12.37c-1.82,8.56-4.37,16.97-7.62,25.11,3.11-7.11,9.16-12.87,16.4-15.64,3.17-1.21,6.93-1.8,9.79,.02,3.18,2.01,4.1,6.26,3.98,10.02s-.98,7.57-.18,11.25c2.54-2.9,5.17-5.87,8.59-7.65s7.88-2.11,10.97,.19c3,2.24,3.98,6.26,4.53,9.96,.87,5.82,1.2,11.72,.92,18.55-34.74,0-77.66-.12-114,.16"/><path class="h" d="M99.01,127.73c-1.81-9.27-6.44-17.96-13.11-24.63-6.05-6.05-16.5-10.22-22.75-4.37-3.06,2.87-4.04,7.29-4.52,11.45-1.21,10.63-.1,21.51,3.22,31.68-5.2-8.65-14.72-14.54-24.78-15.34-2.57-.2-5.37-.02-7.34,1.64-2.58,2.16-2.84,5.99-2.63,9.35,.39,6.08,1.69,12.1,3.84,17.8-3.61-7.72-14.25-11.16-21.69-7s-10.1,15.02-5.42,22.14c7.77-.32,109.69-.1,109.69-.1"/><rect class="g" x="56.33" y="213" width="216" height="9"/><polygon class="g" points="56.33 213 83.33 168 245.33 168 272.33 213 56.33 213"/><path class="h" d="M267.92,111.65c-10.6,13.15-18.85,28.19-24.24,44.2"/><polygon class="g" points="137.33 213 141.83 199.5 186.83 199.5 191.33 213 137.33 213"/><path class="h" d="M76.25,118.93c6.58,13.9,12.23,28.24,16.9,42.89"/><rect class="g" x="83.33" y="73.5" width="162" height="94.5"/><rect class="i" x="87.83" y="78" width="153" height="85.5"/><g><polygon class="d" points="200.33 15 200.33 91.5 128.33 91.5 128.33 1.5 186.83 1.5 200.33 15"/><polygon class="e" points="200.33 15 200.33 19.5 128.33 19.5 128.33 1.5 186.83 1.5 200.33 15"/><polygon class="f" points="200.33 15 186.83 15 186.83 1.5 200.33 15"/></g><path class="e" d="M182.44,33h-36.11c-4.97,0-9,4.03-9,9v18.07c0,4.97,4.03,9,9,9h8.57l8.84,8.48c.37,.36,.96,.36,1.33,0l8.84-8.48h8.54c4.97,0,9-4.03,9-9v-18.07c0-4.97-4.03-9-9-9Zm-13,19.2l-9.58,5.11c-.92,.49-2.04-.18-2.04-1.22v-10.23c0-1.05,1.12-1.72,2.04-1.22l9.58,5.11c.98,.52,.98,1.92,0,2.45Z"/><circle class="e" cx="164.33" cy="127.5" r="9"/><circle class="e" cx="164.33" cy="105" r="4.5"/><line class="d" x1="96.83" y1="181.5" x2="227.33" y2="181.5"/><line class="d" x1="87.83" y1="199.5" x2="240.83" y2="199.5"/><path class="h" d="M43.77,144c5.69,8.03,10.44,16.72,14.1,25.86"/><path class="h" d="M278.73,167.92c2.68-8.77,7.05-17.01,12.79-24.16"/></g></g></g></svg>