<?xml version="1.0" encoding="UTF-8"?><svg xmlns="http://www.w3.org/2000/svg" viewBox="0 0 178.5 159.62"><defs><style>.e,.f{fill:none;}.f,.g,.h,.i{stroke:#4a3a85;stroke-linecap:round;stroke-linejoin:round;stroke-width:3px;}.g{fill:#fff;}.h{fill:#ffe6db;}.i{fill:#f2fffe;}</style></defs><g id="a"/><g id="b"><g id="c"><path class="e" d="M47.26,0H11.15C6.18,0,2.15,4.03,2.15,9V27.07c0,4.97,4.03,9,9,9h8.57l8.84,8.48c.37,.36,.96,.36,1.33,0l8.84-8.48h8.54c4.97,0,9-4.03,9-9V9C56.26,4.03,52.23,0,47.26,0Zm-13,19.2l-9.58,5.11c-.92,.49-2.04-.18-2.04-1.22V12.86c0-1.05,1.12-1.72,2.04-1.22l9.58,5.11c.98,.52,.98,1.92,0,2.45Z"/></g><g id="d"><g><path class="i" d="M145.5,90.62v62.23c0,2.91-2.36,5.27-5.27,5.27H51l12.6-9,6.25-4.47,18.51-13.22,48.14-34.38,7.2-5.14,1.8-1.29Z"/><path class="i" d="M37.5,79.92v16.84l-8.95-6.11c.13-.17,.27-.34,.42-.52,.56-.7,1.18-1.46,1.85-2.28,.17-.2,.34-.42,.52-.63,1.77-2.15,3.85-4.63,6.16-7.3Z"/><path class="f" d="M28.55,90.65s-.03,.04-.05,.06v-.09l.05,.03Z"/><polygon class="i" points="145.5 90.62 136.5 97.05 136.5 81.62 145.5 90.62"/><path class="i" d="M105.33,50.12h-37.6c3.65-1.96,15.1-9,19.27-9,4.78,0,15.66,7.38,18.33,9Z"/><path class="g" d="M136.5,55.39v41.66l-48.14,34.38-50.86-34.67V55.39c0-2.91,2.36-5.27,5.27-5.27h88.46c2.91,0,5.27,2.36,5.27,5.27Z"/><path class="i" d="M88.36,131.43l-18.51,13.22-6.25,4.47-12.6,9h-17.23c-2.91,0-5.27-2.36-5.27-5.27v-62.14s.03-.04,.05-.06l8.95,6.11,50.86,34.67Z"/><line class="f" x1="28.55" y1="90.65" x2="28.5" y2="90.62"/><path class="h" d="M105.11,68.12h-36.11c-4.97,0-9,4.03-9,9v18.07c0,4.97,4.03,9,9,9h8.57l8.84,8.48c.37,.36,.96,.36,1.33,0l8.84-8.48h8.54c4.97,0,9-4.03,9-9v-18.07c0-4.97-4.03-9-9-9Zm-13,19.2l-9.58,5.11c-.92,.49-2.04-.18-2.04-1.22v-10.23c0-1.05,1.12-1.72,2.04-1.22l9.58,5.11c.98,.52,.98,1.92,0,2.45Z"/><circle class="h" cx="150" cy="36.62" r="4.5"/><circle class="h" cx="6" cy="72.62" r="4.5"/><circle class="h" cx="170.25" cy="79.37" r="6.75"/><circle class="h" cx="44.25" cy="20.87" r="6.75"/></g></g></g></svg>