<?xml version="1.0" encoding="UTF-8"?><svg xmlns="http://www.w3.org/2000/svg" viewBox="0 0 93.11 83.82"><defs><style>.d{fill:#ffe6db;}.d,.e{stroke:#4a3a85;stroke-linecap:round;stroke-linejoin:round;stroke-width:3px;}.e{fill:#f0f0f0;}</style></defs><g id="a"/><g id="b"><g id="c"><g><rect class="d" x="37.5" y="1.5" width="54.11" height="36.07" rx="9" ry="9"/><rect class="d" x="28.5" y="10.5" width="54.11" height="36.07" rx="9" ry="9"/><rect class="d" x="19.5" y="19.5" width="54.11" height="36.07" rx="9" ry="9"/><rect class="d" x="10.5" y="28.5" width="54.11" height="36.07" rx="9" ry="9"/><path class="d" d="M46.61,37.5H10.5c-4.97,0-9,4.03-9,9v18.07c0,4.97,4.03,9,9,9h8.57l8.84,8.48c.37,.36,.96,.36,1.33,0l8.84-8.48h8.54c4.97,0,9-4.03,9-9v-18.07c0-4.97-4.03-9-9-9Z"/><path class="e" d="M35.27,54.35l-9.58-5.11c-.92-.49-2.04,.18-2.04,1.22v10.23c0,1.05,1.12,1.72,2.04,1.22l9.58-5.11c.98-.52,.98-1.92,0-2.45Z"/></g></g></g></svg>